<svg width="24" height="24" viewBox="0 0 24 24" fill="none" xmlns="http://www.w3.org/2000/svg">
  <path d="M22.3125 13.5625C22.3125 8.24676 18.0032 3.9375 12.6875 3.9375C7.37176 3.9375 3.0625 8.24676 3.0625 13.5625C3.0625 18.8782 7.37176 23.1875 12.6875 23.1875" stroke="#262933" stroke-width="1.575"/>
  <path fill-rule="evenodd" clip-rule="evenodd" d="M21.875 15.75L25.7251 19.6001H22.258V19.6002H17.0625V18.0252H21.875V15.75ZM20.0327 25.0712L16.1875 21.2338H20.0327V21.234H24.8383V22.809H20.0327V25.0712Z" fill="#2354E6"/>
  <path d="M16.9157 15.5177C17.3067 13.8637 16.8294 12.0521 15.5046 10.8015C14.1798 9.55101 12.3437 9.17893 10.715 9.66458" stroke="#262933" stroke-width="1.75"/>
  <path d="M14 12.25L9.1875 17.5" stroke="#262933" stroke-width="1.75"/>
</svg>