<svg width="24" height="24" viewBox="0 0 24 24" fill="none" xmlns="http://www.w3.org/2000/svg">
  <path d="M5.99602 14.4275V9.95524H7.46836L8.70758 12.5196L8.79347 12.7036H8.82414V9.95524H9.9284V14.4275H8.54808L7.19843 11.8141L7.13095 11.673H7.10027V14.4275H5.99602ZM10.8247 14.4275V9.95524H14.1253V10.9368H11.9781V11.8509H13.8799V12.7834H11.9781V14.4275H10.8247ZM15.7526 10.8509H16.8998V14.4275H15.7526V10.8509ZM18.1943 10.9429H14.4521V9.95524H18.1943V10.9429Z" fill="#262933"/>
  <path d="M20.6533 13.9502V16.7738L11.9981 21.5342L3.34296 16.7738V7.25295L11.7793 2.38306L14.8724 4.0843" stroke="#262933" stroke-width="1.5"/>
  <path d="M20.6678 12.4275V7.50857L16.4331 4.99444" stroke="#2354E6" stroke-width="1.5"/>
</svg>