<svg width="28" height="28" viewBox="0 0 28 28" fill="none" xmlns="http://www.w3.org/2000/svg">
  <path d="M19.1182 19.9565V18.2101L8.87988 18.2101V24.0288H14.0014" stroke="#262933" stroke-width="1.575"/>
  <path d="M19.0446 21.2512L19.0448 24.0177H15.3774" stroke="#2354E6" stroke-width="1.575"/>
  <path fill-rule="evenodd" clip-rule="evenodd" d="M9.43902 11.9188C8.58728 11.6947 7.42217 11.4731 5.99544 11.4056C6.26124 10.282 6.83878 8.88232 7.85415 7.68055C8.83489 6.51977 10.2323 5.53101 12.1986 5.15241C11.4516 6.159 10.6956 7.49904 10.3839 8.94205C10.1434 10.0558 10.0486 11.1115 10.0133 11.8854C10.0102 11.9527 10.0076 12.0179 10.0053 12.081C9.83561 12.0282 9.64659 11.9734 9.43902 11.9188ZM11.8379 9.25611C12.1787 7.67842 13.2015 6.18596 13.9782 5.31867C14.2899 5.67857 14.6497 6.13212 14.9873 6.63814C15.5419 7.46932 15.9942 8.37943 16.1241 9.21357C16.318 10.4577 16.4144 11.4491 16.4624 12.1257L16.4648 12.16C16.3896 12.1411 16.3118 12.1219 16.232 12.1027C15.5623 11.9419 14.6722 11.7605 13.9995 11.7605C13.3267 11.7605 12.4367 11.9419 11.767 12.1027C11.6716 12.1256 11.5792 12.1485 11.4906 12.171C11.4929 12.1014 11.4958 12.0287 11.4992 11.9532C11.532 11.2336 11.62 10.265 11.8379 9.25611ZM17.0353 13.8586L17.036 13.8588L17.036 13.8588L17.0361 13.8588L17.0361 13.8588L17.2746 13.9318L17.5087 13.8462L17.5088 13.8461L17.5088 13.8461L17.5089 13.8461L17.5099 13.8458L17.5156 13.8437L17.5409 13.8346C17.5638 13.8265 17.5986 13.8143 17.6442 13.7985C17.7355 13.7671 17.8699 13.7219 18.0389 13.6679C18.3773 13.56 18.8519 13.418 19.3946 13.2825C19.84 13.1712 20.3178 13.0679 20.7957 12.99L17.3057 16.0842H19.548L23.3819 12.6851L23.6729 12.4271L23.6271 12.0409C23.4569 10.6071 22.7781 8.49227 21.2811 6.72054C19.7624 4.92305 17.4155 3.5 13.9995 3.5C10.5834 3.5 8.2366 4.92305 6.71791 6.72055C5.22097 8.49229 4.54225 10.6071 4.37216 12.0409L4.32715 12.4203L4.60931 12.6779L8.34113 16.0842H10.5475L7.16528 12.9969C7.91879 13.0903 8.55528 13.2244 9.06049 13.3573C9.51775 13.4776 9.8671 13.597 10.0978 13.6841C10.2131 13.7277 10.2987 13.7632 10.3532 13.7867C10.3805 13.7984 10.4 13.8072 10.4115 13.8125L10.4224 13.8175L10.4228 13.8177L10.4228 13.8177L10.4233 13.8179L10.4239 13.8182L10.6844 13.944L10.9629 13.8588L10.9629 13.8588L10.963 13.8588L10.963 13.8588L10.9637 13.8586L10.9673 13.8574L10.9833 13.8526L11.0481 13.8334C11.1051 13.8166 11.1886 13.7924 11.2927 13.7632C11.5013 13.7047 11.7908 13.6268 12.1144 13.5491C12.7838 13.3883 13.5208 13.248 13.9995 13.248C14.4782 13.248 15.2151 13.3883 15.8846 13.5491C16.2082 13.6268 16.4977 13.7047 16.7063 13.7632C16.8104 13.7924 16.8939 13.8166 16.9509 13.8334L17.0157 13.8526L17.0317 13.8575L17.0353 13.8586ZM19.0342 11.8393C19.8965 11.6239 20.9714 11.4102 21.9949 11.3688C21.7253 10.2515 21.1493 8.86923 20.1449 7.68056C19.1555 6.50952 17.7419 5.51356 15.7481 5.14252C15.9074 5.35338 16.068 5.5777 16.2247 5.81253C16.8278 6.71642 17.4154 7.83876 17.5939 8.9846C17.7946 10.2732 17.8955 11.306 17.9461 12.0205L17.9542 12.1369C18.2623 12.0442 18.6302 11.9402 19.0342 11.8393Z" fill="#262933"/>
</svg>